HIERARCHY
ROOT Hips
{
    OFFSET 12.920206069946289 81.09098815917969 -16.95142364501953
    CHANNELS 6 Xposition Yposition Zposition Zrotation Xrotation Yrotation
    JOINT RightUpLeg
    {
        OFFSET -12.920206069946289 0.0 0.0
        CHANNELS 3 Zrotation Xrotation Yrotation
        JOINT RightLeg
        {
            OFFSET 0.0 -38.71242904663086 0.0
            CHANNELS 3 Zrotation Xrotation Yrotation
            JOINT RightFoot
            {
                OFFSET 0.0 -42.37855911254883 0.0
                CHANNELS 3 Zrotation Xrotation Yrotation
                End Site
                {
                    OFFSET 0.0 0.0 16.95142364501953
                }
            }
        }
    }
    JOINT LeftUpLeg
    {
        OFFSET 12.920206069946289 0.0 0.0
        CHANNELS 3 Zrotation Xrotation Yrotation
        JOINT LeftLeg
        {
            OFFSET 0.0 -38.71242904663086 0.0
            CHANNELS 3 Zrotation Xrotation Yrotation
            JOINT LeftFoot
            {
                OFFSET 0.0 -42.37855911254883 0.0
                CHANNELS 3 Zrotation Xrotation Yrotation
                End Site
                {
                    OFFSET 0.0 0.0 16.95142364501953
                }
            }
        }
    }
    JOINT Spine
    {
        OFFSET 0.0 21.740419387817383 0.0
        CHANNELS 3 Zrotation Xrotation Yrotation
        JOINT Spine3
        {
            OFFSET 0.0 24.721912384033203 0.0
            CHANNELS 3 Zrotation Xrotation Yrotation
            JOINT Neck
            {
                OFFSET 0.0 10.443233489990234 0.0
                CHANNELS 3 Zrotation Xrotation Yrotation
                End Site
                {
                    OFFSET 0.0 4.177293300628662 0.0
                }
            }
            JOINT LeftArm
            {
                OFFSET 14.306474685668945 0.0 0.0
                CHANNELS 3 Zrotation Xrotation Yrotation
                JOINT LeftForeArm
                {
                    OFFSET 25.547161102294922 0.0 0.0
                    CHANNELS 3 Zrotation Xrotation Yrotation
                    JOINT LeftHand
                    {
                        OFFSET 17.224361419677734 0.0 0.0
                        CHANNELS 3 Zrotation Xrotation Yrotation
                        End Site
                        {
                            OFFSET 6.889744281768799 0.0 0.0
                        }
                    }
                }
            }
            JOINT RightArm
            {
                OFFSET -14.306474685668945 0.0 0.0
                CHANNELS 3 Zrotation Xrotation Yrotation
                JOINT RightForeArm
                {
                    OFFSET -25.547161102294922 0.0 0.0
                    CHANNELS 3 Zrotation Xrotation Yrotation
                    JOINT RightHand
                    {
                        OFFSET -17.224361419677734 0.0 0.0
                        CHANNELS 3 Zrotation Xrotation Yrotation
                        End Site
                        {
                            OFFSET -6.889744281768799 0.0 0.0
                        }
                    }
                }
            }
        }
    }
}
MOTION
Frames: 7
Frame Time: 0.03333333333333333
-0.00021570421813521534 62.66278076171875 -0.002092726994305849 -49.15841427073202 -3.1215317215196365 81.8523998498562 -175.3751517112631 -75.51095935020537 170.5315783294277 5.747837651003986 56.78225759906897 -6.832412649301348 0.0 0.0 -4.174478019420865e-15 167.08559093098543 -73.4798637092823 153.71491249520713 17.707815442673994 63.83198595796542 -22.91653791401046 3.9756933518293955e-16 1.0000256456519891e-32 2.8823776800763118e-15 5.590438928134391 25.59516772255113 3.817296573556852 -1.6001975802025803e-06 -5.159362508890268e-06 8.71614276288728 0.8622683651372872 28.697808935256376 40.720999452104074 144.36016103731902 -1.9454315101022552 -104.97058815858476 -2.770802167152575e-06 -4.0497350574062065e-06 83.75360997945117 0.0 0.0 0.0 -108.59680631489276 10.15050182105514 126.2352657951725 5.695130072878937e-06 -4.285162617619852e-06 -130.09742698588983 -1.7655625192200634e-31 6.3611093629270335e-15 3.1805546814635168e-15
-3.4710865293163806e-06 62.66278076171875 -0.0020027547143399715 -49.20928521598498 -0.9425316142983644 80.84325724693662 -179.67603457808573 -75.59846032482724 167.63850358214515 5.510976411929058 57.21302414375601 -7.268219766098812 -1.8879794517050483e-32 3.975693351829396e-16 5.4417302753164856e-15 161.62011665866467 -73.37909878521091 149.6794505186042 17.868134205124846 63.38777646261571 -23.996738726119304 3.9756933518293955e-16 3.9756933518293955e-16 1.4908850069360234e-15 5.02843214119585 26.12661167857493 3.5490431962313416 -1.1152257953143403e-06 3.9726975573493626e-07 9.149010435474455 -1.336382247930288 28.06203650320786 43.31445201245447 140.71099103065893 -0.4384172684925339 -104.95090788820328 3.296278614587597e-06 -1.3222327822920757e-06 86.36479548866184 -3.1805546814635168e-15 0.0 0.0 -108.53630225665226 9.751330174970027 124.77938614525269 -4.228651080298985e-08 1.5376521415898346e-06 -130.0761874005096 7.951386703658792e-16 2.2069531490250793e-32 3.1805546814635168e-15
0.0001808525703381747 62.662864685058594 -0.0018753729527816176 -48.42728289675434 0.514305785435131 80.69085366073743 176.48100710044318 -76.4458155964205 165.0964984243035 4.6262014736396795 56.830446786618175 -6.830618303471033 -3.975693351829398e-16 1.1927080055488188e-15 1.475976156866663e-14 158.4549206018656 -73.48537933732027 147.81900006250885 16.940537785945452 64.73130642429513 -23.748506661971028 1.5902773407317584e-15 -1.7890620083232288e-15 -1.4411888400381562e-14 5.535289058973914 27.357386109712564 2.870758919359951 1.6942392160003326e-06 3.800929167477802e-06 10.067747944381813 -2.167085621084379 29.23764523462138 40.084947919760324 137.12464623957342 1.6840342357662492 -106.07826935572876 5.42604927626105e-06 4.427500503937507e-06 86.61281069246793 6.3611093629270335e-15 0.0 0.0 -112.44443306643686 8.833318098763492 124.0059913219678 -2.1612865333671186e-06 8.97910260041479e-07 -128.0914639995815 -3.1805546814635168e-15 6.3611093629270335e-15 1.7655625192200634e-31
6.022191882948391e-05 62.662750244140625 -0.0019321880536153913 -48.69071772745724 0.4520872478444987 81.00705234445162 179.83647412992403 -75.86916526975386 168.5216348550894 5.319495689181435 57.03411082137863 -6.857643322221996 -3.975693351829396e-16 -3.9756933518293955e-16 -9.119246625758677e-15 162.80369794592502 -73.76769163603358 152.17009560961998 17.71259670038762 64.61308727682894 -23.29601312417569 1.5902773407317584e-15 1.5902773407317584e-15 -1.2921003393445538e-15 5.998846465805646 25.937755415957863 2.471700318216979 1.0930681390026856e-06 2.45726498684204e-06 9.350650883175101 -0.6893963914409146 29.738191032164845 40.09103785046537 138.14024660739548 1.8449517073037849 -107.55882245862328 2.825453074282442e-07 -6.701246590650132e-06 85.32316621788401 0.0 -1.5902773407317584e-15 0.0 -111.92443317258254 9.562677148879827 125.45866977512155 1.2345361494426143e-06 6.874168097165245e-06 -126.70477960602958 7.951386703658792e-16 6.3611093629270335e-15 -4.4139062980501586e-32
3.0065893952269107e-05 62.662742614746094 -0.0019596461206674576 -48.75114633590769 -0.37527021821828344 80.6828802084319 179.22196959388253 -75.82849764098573 167.23299297394973 5.349517826523157 57.35510157410227 -7.183694919288042 -3.975693351829395e-16 7.95138670365879e-16 2.8823776800763114e-15 163.1089102366149 -73.56591733535286 151.79563986239594 16.704813595167746 64.80235704584571 -22.5693425166775 -1.2689980606894205e-31 -1.5902773407317588e-15 -9.144094709207612e-15 5.793830694723207 25.743794059092927 2.856982726265233 2.3468963312607547e-07 -9.601116904419445e-07 9.610210934658792 -0.3975979545651691 29.27400581688132 39.66149285750355 138.19680794650006 1.6727815835680877 -108.24728386627287 6.273610236985456e-07 3.3236964981410956e-06 82.73104233152019 -9.541664044390549e-15 -2.648343778830095e-31 3.1805546814635164e-15 -110.83424749018272 10.21548990228462 125.51916304057383 -8.710435767882013e-07 4.258874954704024e-06 -127.04038933871938 0.0 0.0 0.0
-5.474057616083883e-05 62.662811279296875 -0.0020457773935049772 -49.02031851772243 -0.06127677644462434 81.6402696440084 -179.5649317210776 -75.83201799731182 169.0114917598338 3.9039150450597595 56.76464311187503 -5.551032710245515 3.975693351829395e-16 3.975693351829396e-16 8.845917707820405e-15 162.59966044109214 -73.96119875992132 151.85255545435686 15.702184994949484 63.21563115512107 -21.174031020331647 -3.975693351829396e-16 -1.5902773407317584e-15 -2.683593012484842e-15 5.660372466663463 25.405405397970267 2.6126790730427927 -2.634509789591827e-06 -2.538230869655544e-06 9.467403945820523 1.6562538179972996 30.017038832465605 34.61919049625871 138.46852513889948 0.6775866150796988 -107.55393463785643 -1.018288074630033e-05 4.1785059272913055e-06 80.12012502520913 3.1805546814635164e-15 6.361109362927033e-15 -1.7655625192200634e-31 -110.37463765907812 9.976141967023944 125.95144955870843 1.027032957149559e-06 2.8651484506166367e-07 -125.60501723772134 -7.951386703658794e-16 0.0 0.0
-5.558067641686648e-05 62.66299057006836 -0.0019752224907279015 -49.432622529355115 -1.6846043221525338 82.03715420777918 178.75925344669744 -75.05225777166096 167.5828203108926 6.559470860099362 57.35604495938699 -8.28689762214704 3.975693351829396e-16 -3.879409832270647e-33 -1.1181637552020175e-15 162.46648957217113 -72.67857258885125 152.0435233623161 18.183154226226005 63.49736770902466 -24.07643957558727 3.975693351829396e-16 -1.9878466759146984e-15 -5.466578358765421e-15 5.736669835538187 25.959724699576483 2.5596983648335976 2.1688860566649812e-07 -1.768775685588746e-06 9.220088243812048 -0.46562472338865835 28.093579646733144 44.150688253346246 134.3363122196528 -0.6625365082681278 -106.84618224620243 -2.0792290770411263e-06 2.082516119527922e-06 81.16083287278454 1.5902773407317584e-15 4.4139062980501586e-32 3.1805546814635168e-15 -111.20190612415198 8.858034202865152 126.18256414927407 -1.5187602517935266e-06 5.448140542560355e-06 -129.01387391257913 3.975693351829395e-15 -6.361109362927032e-15 2.2069531490250793e-31
